<?xml version="1.0" standalone="no"?>
<!DOCTYPE svg PUBLIC "-//W3C//DTD SVG 1.1//EN" "http://www.w3.org/Graphics/SVG/1.1/DTD/svg11.dtd" >
<svg xmlns="http://www.w3.org/2000/svg">
<metadata>Generated by IcoMoon</metadata>
<defs>
<font id="icomoon" horiz-adv-x="1024">
<font-face units-per-em="1024" ascent="960" descent="-64" />
<missing-glyph horiz-adv-x="1024" />
<glyph unicode="&#x20;" horiz-adv-x="512" d="" />
<glyph unicode="&#xe900;" glyph-name="e900_people" horiz-adv-x="466" d="M392.064 564.8c-9.344 16-18.752 30.464-28.224 43.648v43.776c0 12.352-10.112 22.464-22.784 22.464h-38.4c-8.448 6.272-16.768 11.072-25.28 15.168 50.368 17.856 86.528 65.024 86.528 120.704 0 70.848-58.56 128.448-130.944 128.448 0 0-0.064 0-0.128 0-0.576 0-1.216 0-1.664 0-0.128 0-0.128 0-0.256 0v-0.192c-71.36-1.024-128.96-57.984-128.96-128.256 0-55.68 36.096-102.784 86.528-120.704-8.448-4.096-16.896-8.896-25.216-15.232h-38.464c-12.544 0-22.72-9.984-22.72-22.4v-43.84c-9.536-13.12-18.88-27.584-28.288-43.584-89.344-151.552-67.136-240.256 66.112-265.856v-319.552c0-12.352 10.112-22.4 22.72-22.4h26.688c12.48 0 22.72 9.984 22.72 22.4v312.192c6.528-0.192 13.184-0.32 19.968-0.384v-0.192c0.32 0 0.64 0 0.96 0v0.192c7.168 0 14.144 0.192 20.928 0.384v-312.192c0-12.352 10.176-22.4 22.72-22.4h26.688c12.416 0 22.656 9.984 22.656 22.4v319.552c133.312 25.6 155.392 114.304 66.112 265.856z" />
<glyph unicode="&#xe901;" glyph-name="e901_leftpeople" horiz-adv-x="233" d="M232.832 939.008c-72.256 0-130.88-57.536-130.88-128.448 0-55.68 36.096-102.784 86.528-120.704-8.448-4.096-16.896-8.896-25.216-15.232h-38.464c-12.544 0-22.72-9.984-22.72-22.4v-43.84c-9.536-13.12-18.88-27.584-28.288-43.584-89.344-151.552-67.136-240.256 66.112-265.856v-319.552c0-12.352 10.112-22.4 22.72-22.4h26.688c12.48 0 22.72 9.984 22.72 22.4v312.192c6.848-0.192 13.76-0.384 20.928-0.384v-0.192z" />
<glyph unicode="&#xe902;" glyph-name="e902_rightpeople" horiz-adv-x="235" d="M1.088 291.008c0.32 0 0.64 0 0.96 0v0.192c7.168 0 14.144 0.192 20.928 0.384v-312.192c0-12.352 10.176-22.4 22.72-22.4h26.688c12.416 0 22.656 9.984 22.656 22.4v319.552c133.248 25.6 155.392 114.304 66.048 265.856-9.344 16-18.752 30.464-28.224 43.648v43.776c0 12.352-10.112 22.464-22.784 22.464h-38.4c-8.384 6.272-16.704 11.072-25.152 15.168 50.368 17.856 86.528 65.024 86.528 120.704 0 70.848-58.56 128.448-130.944 128.448 0 0-0.064 0-0.128 0-0.576 0-1.216 0-1.664 0-0.128 0-0.128 0-0.256 0z" />
<glyph unicode="&#xe903;" glyph-name="e903_people2" horiz-adv-x="466" d="M405.888 572.928c-8.64 14.656-17.216 28.032-26.048 40.64v38.656c0 21.184-17.408 38.464-38.784 38.464h-26.368c40.064 26.432 65.28 71.232 65.28 119.872 0 79.232-65.28 143.616-145.728 144.32v0.128h-0.128c-0.192 0-0.384-0.064-0.576-0.064s-0.384 0.064-0.576 0.064v-0.128c-82.368-0.576-147.648-65.024-147.648-144.32 0-48.704 25.28-93.504 65.344-119.936h-26.56c-21.376 0-38.72-17.216-38.72-38.4v-38.72c-8.768-12.416-17.344-25.792-25.984-40.576-53.696-91.136-68.608-160.192-45.568-211.2 16.768-37.12 53.568-62.656 109.44-75.776v-306.624c0-21.184 17.344-38.4 38.72-38.4h26.688c21.312 0 38.72 17.216 38.72 38.4v295.68l3.648-0.064h6.848v-295.616c0-21.184 17.344-38.4 38.72-38.4h26.688c21.312 0 38.656 17.216 38.656 38.4v306.624c55.872 13.12 92.672 38.656 109.44 75.776 23.040 51.008 8.192 120.064-45.504 211.2z" />
<glyph unicode="&#xe904;" glyph-name="e904_leftpeople2" horiz-adv-x="233" d="M234.24 955.008h-0.128c-82.944 0-148.8-64.768-148.8-144.448 0-48.704 25.28-93.504 65.344-119.936h-26.56c-21.376 0-38.72-17.216-38.72-38.4v-38.72c-8.768-12.416-17.344-25.792-25.984-40.576-53.696-91.136-68.608-160.192-45.568-211.2 16.768-37.12 53.568-62.656 109.44-75.776v-306.624c0-21.184 17.344-38.4 38.72-38.4h26.688c21.312 0 38.72 17.216 38.72 38.4v295.68l4.864-0.064z" />
<glyph unicode="&#xe905;" glyph-name="e905_rightpeople2" horiz-adv-x="235" d="M0.128 275.008h6.848v-295.616c0-21.184 17.344-38.4 38.72-38.4h26.688c21.312 0 38.656 17.216 38.656 38.4v306.624c55.872 13.12 92.672 38.656 109.44 75.776 22.976 50.944 8.128 120.064-45.568 211.2-8.576 14.592-17.152 27.968-25.984 40.576v38.656c0 21.184-17.408 38.464-38.784 38.464h-26.368c40.064 26.432 65.28 71.232 65.28 119.872 0 79.68-65.92 144.448-146.944 144.448z" />
<glyph unicode="&#xe906;" glyph-name="e906_3square" d="M568.889 960h455.111v-455.111h-455.111v455.111zM568.889 391.111h455.111v-455.111h-455.111v455.111zM0 391.111h455.111v-455.111h-455.111v455.111z" />
<glyph unicode="&#xe907;" glyph-name="e907_delete" d="M128 640v-640c0-35.2 28.8-64 64-64h576c35.2 0 64 28.8 64 64v640h-704zM320 64h-64v448h64v-448zM448 64h-64v448h64v-448zM576 64h-64v448h64v-448zM704 64h-64v448h64v-448zM848 832h-208v80c0 26.368-21.632 48-48 48h-224c-26.368 0-48-21.632-48-48v-80h-208c-26.432 0-48-21.568-48-48v-80h832v80c0 26.432-21.632 48-48 48zM576 832h-192v63.168h192v-63.168z" />
<glyph unicode="&#xe908;" glyph-name="e908_calendar" d="M320 576h128v-128h-128zM512 576h128v-128h-128zM704 576h128v-128h-128zM128 192h128v-128h-128zM320 192h128v-128h-128zM512 192h128v-128h-128zM320 384h128v-128h-128zM512 384h128v-128h-128zM704 384h128v-128h-128zM128 384h128v-128h-128zM832 960v-64h-128v64h-448v-64h-128v64h-128v-1024h960v1024h-128zM896 0h-832v704h832v-704z" />
<glyph unicode="&#xe909;" glyph-name="e909_tag" horiz-adv-x="1280" d="M1232 960h-384c-26.368 0-63.296-15.296-81.92-33.92l-476.096-476.096c-18.688-18.688-18.688-49.216 0-67.904l412.096-412.096c18.688-18.688 49.216-18.688 67.904 0l476.096 476.096c18.688 18.688 33.92 55.552 33.92 81.92v384c0 26.368-21.568 48-48 48zM992 576c-52.992 0-96 43.008-96 96s43.008 96 96 96 96-43.008 96-96-43.008-96-96-96zM128 416l544 544h-80c-26.368 0-63.296-15.296-81.92-33.92l-476.096-476.096c-18.688-18.688-18.688-49.216 0-67.904l412.096-412.096c18.688-18.688 49.216-18.688 67.904 0l30.080 30.080-416 416z" />
<glyph unicode="&#xe90a;" glyph-name="e910_pause" d="M128 832h320v-768h-320zM576 832h320v-768h-320z" />
<glyph unicode="&#xe90b;" glyph-name="e911_play" d="M192 832l640-384-640-384z" />
<glyph unicode="&#xe90c;" glyph-name="e912_position" horiz-adv-x="931" d="M696.043 448.18l-195.535-303.627c0 0-18.674-10.773-34.923-10.773-16.070 0-31.781 10.953-31.781 10.953l-201.819 301.293-231.985-87.623v-413.335l228.753 96.511 241.86-105.668 232.074 107.823 228.753-107.823v422.492l-235.396 89.777zM745.331 681.331c0 153.878-125.15 278.669-279.387 278.669-154.417 0-279.477-124.79-279.477-278.669s279.477-512.898 279.477-512.898 279.387 359.019 279.387 512.898zM344.116 681.331c0 65.448 53.238 118.506 118.955 118.506 65.537 0 118.865-53.148 118.865-118.506 0-65.448-53.328-118.596-118.865-118.596-65.627 0-118.955 53.148-118.955 118.596z" />
<glyph unicode="&#xe90d;" glyph-name="e913_timecup" horiz-adv-x="873" d="M743.997 793.040h4.412c25.503 0 46.329 20.738 46.329 46.241v36.798h31.768c25.415 0 46.152 20.826 46.152 46.329v37.593h-872.747v-37.681c0-25.503 20.738-46.329 46.152-46.329h30.798v-36.71c0-25.503 20.738-46.329 46.152-46.329h4.853c0-111.542 35.033-216.731 123.191-289.18 7.766-6.971 26.121-23.65 35.475-32.651 7.236-8.119 12.884-16.237 13.237-21.885 0.882-13.678-15.972-30.974-29.474-42.358-0.088-0.088-0.265-0.265-0.441-0.618-101.923-72.185-141.899-184.168-141.987-303.3h-4.501c-25.415 0-46.152-20.826-46.152-46.241v-36.798h-30.798c-25.415 0-46.152-20.649-46.152-46.064v-37.857h872.747v37.857c0 25.415-20.738 46.064-46.152 46.064h-32.121v36.798c0 25.415-20.826 46.241-46.329 46.241h-4.412c0 118.867-40.769 229.968-141.899 302.505-0.265 0.529-0.618 1.059-1.059 1.5-13.413 11.384-30.445 28.68-29.474 42.358 0.441 5.648 6.001 13.766 13.149 21.797 12.090 11.737 39.093 35.916 39.093 35.916l-0.176 0.088c85.422 72.273 120.367 175.873 120.367 285.915zM597.951 577.721c0 0-8.648-10.413-27.974-26.032-9.354-9.354-19.061-18.002-29.121-25.591-16.061-15.796-33.622-36.357-37.063-53.741h-0.971c-2.824-14.825-7.413-63.625 39.093-103.159 20.12-16.943 25.591-22.238 24.532-22.061 1.147-1.147 2.118-2.118 3.353-3.353 19.502-15.708 27.974-26.121 27.974-26.121 68.214-57.007 75.538-183.374 76.332-214.701h-86.481c2.294 79.862-45.888 134.31-54.359 145.693-8.913 11.56-24.003 27.356-58.948 67.596-34.857 40.328-20.649 105.1-13.060 139.428s54.977 82.245 71.832 102.365c16.678 20.208 15.266 34.945 15.266 34.945h-222.114c0 0-1.677-14.737 15.266-34.945s64.331-68.037 71.832-102.365c7.589-34.416 21.708-99.1-13.060-139.428-34.945-40.24-50.123-56.036-58.86-67.42-8.56-11.472-56.83-65.919-54.359-145.87h-88.069c0.706 31.239 8.030 157.606 75.979 214.701 0 0 8.825 10.413 28.15 26.121 1.235 1.147 2.471 2.206 3.53 3.353-1.059-0.176 4.501 5.206 24.532 22.061 46.505 39.534 41.828 88.334 39.093 103.159h-0.971c-3.53 17.296-21.091 38.034-37.063 53.653-10.060 7.677-19.767 16.325-28.945 25.679-19.414 15.619-28.15 26.032-28.15 26.032-67.772 56.918-75.362 182.668-75.979 214.436h474.937c-0.882-31.768-8.295-157.518-76.156-214.436z" />
<glyph unicode="&#xe90e;" glyph-name="e914_outing" horiz-adv-x="1160" d="M990.202 257.079c150.652 35.056 116.944 193.708 116.944 193.708-24.36 195.416-99.146 312.449-99.146 312.449-92.764 141.124-142.921 161.888-142.921 161.888-72.899 43.955-144.36-5.034-144.36-5.034-54.742-34.697-28.494-121.079-28.494-121.079 15.82-52.225 42.247-138.697 42.247-138.697 27.596-59.146 8.629-139.326 8.629-139.326-35.865-69.034-72-163.685-72-163.685-51.775-150.112 26.697-169.888 26.697-170.067 85.663-36.404 171.775 28.674 171.775 28.674 33.438 20.045 75.056 32.18 120.629 41.169zM335.82 775.82c26.427 7.551 39.82 43.596 29.933 80.539-9.888 36.854-39.281 60.584-65.528 53.034s-39.82-43.685-29.933-80.539c9.888-36.764 39.281-60.584 65.528-53.034zM222.562 739.146c23.101 6.472 34.876 38.562 26.247 71.011s-34.517 53.483-57.618 46.831c-23.011-6.652-34.876-38.562-26.337-71.011 8.719-32.629 34.517-53.573 57.708-46.831zM152.989 721.708c0-26.113-17.265-47.281-38.562-47.281s-38.562 21.168-38.562 47.281c0 26.113 17.265 47.281 38.562 47.281s38.562-21.168 38.562-47.281zM70.831 651.416c0-24.027-15.856-43.506-35.416-43.506s-35.416 19.478-35.416 43.506c0 24.027 15.856 43.506 35.416 43.506s35.416-19.478 35.416-43.506zM462.652 708.854c-85.933 36.584-171.955-28.674-171.955-28.674-33.438-19.775-75.146-32.18-120.539-40.989-150.652-35.146-116.944-193.888-116.944-193.888 24.36-195.236 99.056-312.449 99.056-312.449 92.944-141.124 142.921-161.708 142.921-161.708 73.079-43.955 144.449 4.944 144.449 4.944 54.652 34.697 28.404 121.169 28.404 121.169-15.82 52.225-42.247 138.697-42.247 138.697-27.416 59.236-8.449 139.056-8.449 139.056 35.865 69.124 71.82 163.865 71.82 163.865 51.865 150.022-26.517 169.798-26.517 169.978zM506.427 957.573c-39.371 12.135-84.315-22.022-100.135-76.404s3.416-108.315 42.876-120.539c39.461-12.135 84.315 22.112 100.135 76.674 15.91 54.112-3.236 108.135-42.876 120.27zM711.101 135.461c-39.371 12.225-84.315-22.022-100.135-76.315-15.91-54.562 3.416-108.315 42.787-120.629 39.371-12.135 84.315 22.022 100.225 76.674 15.73 54.292-3.416 108.315-42.876 120.27zM824.539 120.36c-26.427-7.73-39.64-43.596-30.022-80.539 9.888-36.944 39.371-60.764 65.528-53.213 26.517 7.73 39.551 43.596 30.022 80.539-9.978 37.034-39.281 60.764-65.528 53.213zM937.888 157.213c-23.371-6.742-35.146-38.652-26.337-71.281 8.629-32.449 34.427-53.483 57.528-46.831 23.191 6.562 34.966 38.652 26.337 71.281-8.719 32.449-34.517 53.483-57.528 46.831zM1084.404 174.472c0-26.113-17.305-47.281-38.652-47.281s-38.652 21.168-38.652 47.281c0 26.113 17.305 47.281 38.652 47.281s38.652-21.168 38.652-47.281zM1160.539 244.764c0-24.077-15.937-43.596-35.596-43.596s-35.596 19.518-35.596 43.596c0 24.077 15.937 43.596 35.596 43.596s35.596-19.518 35.596-43.596z" />
<glyph unicode="&#xe90f;" glyph-name="e915_date" horiz-adv-x="892" d="M846.83 848.584h-89.168v-111.416c0-36.869-29.693-66.831-66.652-66.831s-67.011 29.872-67.011 66.831v111.416h-356.583v-111.416c0-36.869-29.872-66.831-66.831-66.831-36.869 0-66.831 29.872-66.831 66.831v111.416h-89.168c-24.58 0-44.584-20.005-44.584-44.584v-813.369c0-30.141 24.4-54.542 54.452-54.542h782.42c30.141 0 54.542 24.4 54.542 54.542v813.369c0.090 24.58-19.825 44.584-44.584 44.584zM869.077-9.458c0-17.672-14.353-32.205-32.115-32.205h-782.42c-17.672 0-32.205 14.532-32.205 32.205v546.044h846.74v-546.044zM200.584 692.585c24.58 0 44.584 20.005 44.584 44.584v178.247c-0.090 24.58-20.005 44.584-44.584 44.584s-44.494-20.005-44.494-44.584v-178.337c0-24.58 19.825-44.494 44.494-44.494zM690.92 692.585c24.4 0 44.494 20.005 44.494 44.584v178.247c0 24.58-19.915 44.584-44.494 44.584-24.669 0-44.674-20.005-44.674-44.584v-178.337c0-24.58 20.005-44.494 44.674-44.494zM89.168 469.664h89.079v-66.921h-89.079v66.921zM89.168 358.249h89.079v-66.921h-89.079v66.921zM89.168 246.833h89.079v-66.831h-89.079v66.831zM89.168 135.418h89.079v-66.831h-89.079v66.831zM245.078 469.664h89.168v-66.921h-89.168v66.921zM245.078 358.249h89.168v-66.921h-89.168v66.921zM245.078 246.833h89.168v-66.831h-89.168v66.831zM245.078 135.418h89.168v-66.831h-89.168v66.831zM401.168 469.664h89.168v-66.921h-89.168v66.921zM401.168 358.249h89.168v-66.921h-89.168v66.921zM401.168 246.833h89.168v-66.831h-89.168v66.831zM401.168 135.418h89.168v-66.831h-89.168v66.831zM557.257 469.664h88.989v-66.921h-88.989v66.921zM557.257 358.249h88.989v-66.921h-88.989v66.921zM557.257 246.833h88.989v-66.831h-88.989v66.831zM557.257 135.418h88.989v-66.831h-88.989v66.831zM713.167 469.664h89.079v-66.921h-89.079v66.921zM713.167 358.249h89.079v-66.921h-89.079v66.921zM713.167 246.833h89.079v-66.831h-89.079v66.831zM713.167 135.418h89.079v-66.831h-89.079v66.831z" />
<glyph unicode="&#xe910;" glyph-name="e916_event" horiz-adv-x="1023" d="M511.864 842.8c-217.865 0-394.755-176.799-394.755-394.936 0-217.955 176.799-394.846 394.755-394.846 218.046 0 395.027 176.799 395.027 394.846-0.091 218.137-176.981 394.936-395.027 394.936zM815.766 420.426c0-12.265-9.721-21.986-21.805-21.986h-285.822v-21.986c0-12.083-9.721-21.895-21.895-21.895-12.356 0-21.986 9.63-21.986 21.895v21.986h-22.168c-11.993 0-21.805 9.812-21.805 21.986 0 12.265 9.721 21.986 21.805 21.986h21.986v285.641c0 12.083 9.721 21.895 21.986 21.895 12.356 0 21.895-9.63 21.895-21.895v-285.732h285.913c11.993 0.091 21.895-9.812 21.895-21.895zM511.864 960c-282.461 0-511.864-229.221-511.864-511.864s229.039-512.136 511.864-512.136c282.824 0 512.045 229.221 512.045 511.955-0.091 282.643-229.312 512.045-512.045 512.045zM849.018 110.8c-43.791-43.791-94.759-78.133-151.451-102.118-58.691-24.803-121.288-37.431-185.703-37.431-64.324 0-126.83 12.629-185.521 37.431-56.783 24.076-107.842 58.418-151.451 102.118-43.973 43.882-78.315 94.668-102.3 151.542-24.894 58.691-37.431 121.197-37.431 185.612s12.538 126.83 37.431 185.612c24.076 56.783 58.418 107.933 102.209 151.451 43.791 43.7 94.668 78.224 151.451 102.209 58.782 24.984 121.197 37.613 185.612 37.613s126.83-12.538 185.703-37.431c56.692-23.985 107.66-58.327 151.451-102.118 43.7-43.882 78.133-94.759 102.209-151.542 24.803-58.782 37.431-121.379 37.431-185.794s-12.629-126.83-37.431-185.612c-24.076-56.874-58.418-107.842-102.209-151.542z" />
<glyph unicode="&#xe911;" glyph-name="e917_sence" horiz-adv-x="1357" d="M1341.744 81.857c10.5-20.206 15.706-39.178 15.177-57.002s-5.824-33.266-15.883-46.148c-10.147-12.883-24.265-23.383-42.531-31.148-18.442-7.677-39.619-11.559-63.619-11.559h-1123.532c-26.030 0-47.472 4.941-64.325 14.471s-29.118 21.883-36.795 36.795-11.030 31.766-10.059 50.56c0.971 18.795 6.265 37.766 15.883 57.002 13.5 25.942 28.148 53.737 44.119 83.649 15.883 29.913 32.030 60.266 48.354 90.973l49.148 92.473c16.412 30.971 32.295 60.266 47.648 88.15 35.648 66.443 71.737 132.886 108.356 199.329l183.182-359.569 361.157 670.166c64.414-113.65 126.533-224.83 186.27-333.627 25.854-46.148 52.413-94.062 79.149-143.739 27.177-49.59 53.737-98.209 80.296-145.857 26.471-47.648 51.354-93.444 75.090-137.21 23.648-43.854 44.648-83.032 62.914-117.709v0z" />
<glyph unicode="&#xe912;" glyph-name="e918_4G" d="M303.68 693.504l-289.024-394.176c-34.432-48-8.064-97.472 61.632-88.064l171.328 24.384c0 0-26.432-97.408-35.2-129.6-1.6-4.672 3.2-14.848 14.464-12.48 8.832 1.408 34.368 4.608 34.368 4.608 41.664 5.504 52.864 21.184 60.032 47.872l28.032 103.68c43.264 6.4 55.296 23.552 63.296 55.040 0 0 7.168 26.624 9.536 35.264 0.832 3.2 0 11.008-5.504 10.304-10.496-1.664-41.728-5.504-41.728-5.504s32 119.36 41.664 155.456c9.6 36.928-20.8 43.968-48 40.064-12.032-1.6-40.896-5.504-40.896-5.504l-55.232-204.288-98.496-14.144c-11.2-0.704-15.168 9.536-5.632 21.184l217.792 296.96c25.6 36.864 11.264 74.56-40 66.752l-42.432-7.808zM917.76 537.216c-5.568 85.568-74.496 154.688-160.96 162.56-23.168 2.368-32.064-11.008-33.536-15.744-1.664-6.272-5.632-21.952-8.96-32.192-1.472-5.44 5.76-8.64 8.128-7.872 5.568 0.768 12.032 1.6 17.472 1.6 66.56 0 121.024-52.672 121.024-118.592 0-4.736 0-9.408-0.768-14.144 0-2.368 2.368-7.040 7.936-6.272 9.6 1.536 22.464 3.136 28.864 3.904 8.768 0 21.696 6.272 20.8 26.752zM752 787.712c-2.368-9.408-9.6-36.096-9.6-36.096s0-8.576 10.496-9.408c108.864-5.504 206.464-89.472 208.96-213.568 0-8.704 9.536-8.704 9.536-8.704s25.664 3.968 33.664 4.736c8 0.768 23.232 5.44 18.432 43.968-18.432 120.064-115.264 216-237.952 233.984-19.008 1.6-31.104-6.272-33.536-14.912zM772.864 399.744c92.8 13.376 78.464-57.344 63.296-99.776-20.992-60.48-72.064-147.648-221.824-148.48-139.328-1.408-218.624 130.432-135.296 276.544 48 84.8 149.696 131.968 200.96 145.28 18.368 4.672 36.8 9.408 54.464 10.176 12.032 0.832 32.064 0.832 50.368-18.816 18.496-18.752 24.896-48.704 15.168-69.056-16-0.832-138.432 0.832-220.096-83.264-31.168-32.192-47.232-77.824-31.168-124.928 21.632-63.616 143.36-91.2 201.728 18.048-18.304-2.368-132.928-18.944-132.928-18.944l15.232 55.040c7.936 30.656 24.064 40.064 35.968 42.432l104.128 15.744z" />
<glyph unicode="&#xe913;" glyph-name="e919_waiting" d="M874.048 14.336h-33.024c-5.824 120.256-32.96 210.816-72.384 278.784l-0.512 1.344c-41.408 71.040-96.192 117.504-153.856 145.728 57.664 28.736 112.448 74.688 153.856 145.6l0.512 1.408c40.768 70.72 68.736 166.4 73.024 294.4h32.384c22.144 0 39.488 17.344 39.488 39.168 0 21.76-17.344 39.104-39.488 39.104l-724.16 0.128c-21.824 0-39.424-17.344-39.424-39.168s17.6-39.168 39.488-39.168h32.448c4.736-128 32.128-223.68 72.96-294.4l0.832-1.408c41.28-71.040 95.808-116.928 153.664-145.664-57.856-28.224-112.384-74.688-153.728-145.728l-0.832-1.344c-39.104-68.032-66.304-158.592-72.128-278.784h-33.28c-21.824 0-39.488-17.344-39.488-38.656 0-22.336 17.6-39.68 39.488-39.68h724.16c22.144 0 39.488 17.344 39.488 39.68 0 21.248-17.344 38.656-39.488 38.656zM296.128 269.312l0.576 1.664c47.552 81.664 99.456 125.248 168.32 146.56l2.688 1.664h0.576c1.408 0.576 2.752 1.088 3.968 2.24l0.448 0.512 1.664 1.216 0.32 0.512 1.664 1.6 0.256 0.576c1.152 1.216 1.664 2.496 2.816 3.968v0.576c1.216 1.664 1.728 3.584 1.728 5.568l0.256 0.512v1.792l0.256 1.344v1.088l-0.256 1.408v1.152l-0.256 1.088c0 1.92-0.512 3.904-1.664 5.568v0.576c-1.152 1.664-1.728 2.816-2.816 3.968l-0.32 0.768-1.664 1.472h-0.256l-1.728 1.6-0.448 0.576c-1.216 0.896-2.56 1.664-3.968 2.56l-0.576 0.32-2.688 1.024c-68.864 20.736-120.768 64.896-168.32 147.072l-0.576 0.576c-36.992 64.64-62.080 152.64-66.56 271.232h564.928c-4.032-118.592-29.184-206.592-66.624-271.232l-0.576-0.576c-47.232-82.176-99.392-126.4-167.616-147.072l-3.392-1.024-0.512-0.32c-1.408-0.896-2.56-1.664-4.032-2.56l-0.512-0.576-1.664-1.6-1.92-1.408-0.256-0.832c-0.96-1.152-1.728-2.304-2.304-3.968l-0.576-0.576c-0.512-1.664-1.152-3.584-1.728-5.568v-8.384c0.576-1.984 1.216-3.904 1.728-5.568l0.576-0.576c0.64-1.408 1.344-2.752 2.304-3.968l0.256-0.576 1.92-1.6v-0.576l1.664-1.216 0.512-0.512c1.216-1.088 2.56-1.6 4.032-2.176h0.576l3.392-1.6c68.224-21.312 120.384-64.96 167.616-146.56l0.576-1.664c19.904-33.536 35.776-74.368 47.552-121.856 2.496-13.568 10.944-43.392 13.248-81.92-37.632 33.344-142.848 57.664-268.736 59.584v370.304c1.28 0.384 2.56 0.896 3.776 1.408l0.32 0.576 6.656 2.496 0.64 0.32h0.576c45.568 14.208 82.432 36.864 112.64 66.56 32.576 31.872 57.152 71.552 73.792 115.2 4.544 12.288-1.024 25.728-13.376 30.208-12.224 4.992-25.984-1.152-30.72-13.44-14.72-37.184-35.264-71.296-62.912-98.432-24.768-24.064-55.232-43.072-93.184-54.848l-1.152-0.512-2.816-0.576-2.24-1.088-2.304 1.088-1.664 0.576-2.176 0.512c-37.376 11.776-68.48 30.72-92.864 54.784-27.968 27.2-48.32 61.248-63.168 98.432-4.48 12.352-18.496 18.496-30.208 13.44-12.288-4.48-17.92-17.92-13.44-30.208 16.832-43.648 40.896-83.328 73.792-115.2 29.632-29.696 67.136-52.288 112.384-66.56h0.256l0.832-0.32 6.144-2.496 1.664-0.576c0.896-0.448 1.792-0.896 2.816-1.344v-370.432c-117.888 0-219.904-19.776-268.672-48.448 1.664 18.944 5.568 40.448 13.056 70.656 11.904 48.256 28.096 88.512 47.68 122.048z" />
<glyph unicode="&#xe914;" glyph-name="e920_sendnotice" d="M610.944 832c-17.408 0-35.328-4.608-53.184-13.696l-432.448-219.52v-301.632l432.448-219.52c17.856-9.024 35.776-13.632 53.184-13.632 26.688 0 50.496 11.008 67.136 30.976 15.552 18.688 23.808 44.032 23.808 73.152v559.808c-0.064 61.248-37.376 104.064-90.944 104.064zM626.624 168.128c0-10.56-2.176-19.264-6.016-23.808-1.6-1.984-4.032-4.032-9.664-4.032-3.904 0-10.368 1.024-19.584 5.696l-390.848 198.336v207.296l390.848 198.4c9.216 4.672 15.68 5.696 19.584 5.696 12.992 0 15.68-15.104 15.68-27.776v-559.808zM0 307.968h75.2v280h-75.2v-280zM764.544 589.824c24.576-40.832 37.568-87.68 37.568-135.808 0-43.904-10.944-87.168-31.552-125.376l65.92-36.736c26.688 49.344 40.832 105.408 40.832 162.112 0 62.080-16.832 122.88-48.576 175.616l-64.192-39.808zM932.736 777.92l-64.128-39.872c52.416-87.040 80.128-187.392 80.128-289.92 0-93.632-23.296-186.24-67.392-267.776l65.856-36.736c50.24 92.736 76.8 198.016 76.8 304.512 0 116.672-31.552 230.656-91.264 329.792z" />
<glyph unicode="&#xe915;" glyph-name="e921_sendmail" d="M996.544-36.48c-7.296-16.192-23.424-27.52-42.368-27.52h-884.352c-18.88 0-35.072 11.328-42.304 27.52-16.192 7.296-27.52 23.424-27.52 42.304v884.352c0 18.88 11.328 35.072 27.52 42.368 7.232 16.192 23.424 27.456 42.304 27.456h884.352c18.944 0 35.136-11.264 42.368-27.456 16.192-7.296 27.456-23.488 27.456-42.368v-884.352c0-18.88-11.264-35.008-27.456-42.304zM930.944 866.944h-837.824v-558.592h139.648c25.664 0 46.592-20.8 46.592-46.528v-93.12h465.408v93.12c0 25.664 20.864 46.528 46.592 46.528h139.648v558.592h-0.064zM687.36 531.648c13.696-13.696 13.696-35.904 0-49.536s-35.904-13.696-49.536 0l-102.528 102.464v-194.816c0-19.264-15.616-34.88-34.944-34.88-19.264 0-34.88 15.616-34.88 34.88v195.584l-103.296-103.296c-13.696-13.696-35.84-13.696-49.472 0s-13.696 35.84 0 49.472l162.24 162.24c6.848 6.976 16 10.368 25.088 10.24 9.088 0.128 18.176-3.264 25.152-10.176l162.176-162.176z" />
<glyph unicode="&#xe916;" glyph-name="e922_overdate" d="M203.008 431.296c-25.408 6.208-34.624 20.992-27.776 44.352l26.368 98.368 32.768-8.768-5.184-19.392 99.136-26.56 10.816 40.32-137.792 36.928 7.872 29.44 170.624-45.696-26.56-99.2-131.968 35.392-11.008-41.216c-3.648-11.072 0.32-17.792 11.648-20.224l79.808-21.376c13.184-4.736 21.888-1.344 26.176 10.112 0.576 2.176 2.176 6.016 4.8 11.328 2.368 6.528 4.288 11.456 5.76 14.656 10.816-6.592 20.736-12.16 29.696-17.024-5.312-12.928-10.56-24.768-15.808-35.328-7.872-15.936-23.168-20.48-46.016-13.824l-103.36 27.712zM390.208 372.096l-2.752 36.8c2.112 1.216 5.248 2.752 9.344 4.672 2.944 2.176 9.6 5.504 19.776 9.984l13.312 49.536-22.656 6.208 7.872 29.376 52.992-14.208-21.248-78.976c5.44-17.664 17.28-28.608 35.328-32.832 28.992-8.384 65.664-18.24 110.080-29.504-5.504-6.976-11.072-15.36-16.704-25.28-30.208 8.128-51.712 13.888-64.64 17.408-16.128 4.864-30.784 9.344-44.096 13.44-21.312 5.76-35.648 17.152-43.072 34.176-2.88-1.664-6.784-3.904-11.712-6.784-11.392-6.592-18.688-11.264-21.824-14.016zM454.144 509.888c-4.48 16.832-9.536 33.792-15.168 50.944l29.44 5.632c6.528-16.128 12.416-32.128 17.792-48l-32.064-8.576zM500.096 429.184c-3.52 9.28-8.704 22.4-15.616 39.296-1.92 4.096-3.2 7.104-3.904 9.152l26.944 9.856c8.128-16.576 15.68-32.384 22.4-47.424l-29.824-10.88zM484.608 499.072l7.168 26.88 75.648-20.224 8.768 32.768 31.936-8.576-8.768-32.768 26.048-6.976-7.232-26.88-26.048 6.912-16.896-62.976c-5.504-24.96-20.032-34.624-43.776-28.864-7.936 1.6-20.352 4.608-37.12 9.088 1.6 12.736 2.048 23.424 1.344 32.064 9.92-3.264 19.968-6.272 30.080-8.96 11.008-3.584 17.408 0.128 19.2 11.072l15.296 57.152-75.648 20.288zM655.68 470.336l6.72 25.216 10.88-2.944 4.544 16.832 28.544-7.616-4.48-16.832 28.544-7.68 4.672 17.664 28.608-7.68-4.672-17.664 10.944-2.944-6.72-25.216-10.944 2.944-22.72-84.864 14.336-3.904-3.2-11.776c4.544 10.112 9.024 23.36 13.312 39.616l25.024 93.312 80.704-21.632-44.992-168c-3.968-14.656-13.056-20.48-27.328-17.856-2.24 0.512-6.72 1.728-13.504 3.52-8 1.6-13.632 2.752-17.024 3.776 1.408 12.096 2.112 21.376 1.92 27.392 6.656-1.728 12.608-3.392 17.6-4.736 7.104-2.496 11.328-0.384 12.544 6.528l6.72 25.28-25.152 6.656c-9.728-25.024-23.808-44.032-42.304-57.152-4.224 6.656-9.152 12.992-14.656 19.264l-17.408-7.872c-4.8 13.248-10.816 26.88-17.856 40.768l20.16 8.128-39.488 10.624 15.104-17.6c-14.784-10.368-28.288-19.392-40.576-26.88-4.416 8.384-9.984 16.768-16.704 25.088 12.352 5.76 23.872 12.864 34.56 21.376l-27.776 7.424 6.784 25.28 13.504-3.648 22.656 84.928-10.88 2.88zM676.032 388.352l-3.584-13.44 28.544-7.616 3.584 13.376-28.544 7.68zM685.504 423.616l-3.648-13.44 28.544-7.616 3.648 13.44-28.544 7.616zM695.168 459.776l-3.648-13.504 28.544-7.616 3.648 13.44-28.544 7.68zM718.848 312.896c5.696 5.76 10.688 11.904 14.848 18.496l-28.544 7.744c4.608-9.792 9.152-18.368 13.696-26.24zM781.312 374.528c-0.96-3.392-1.792-6.72-2.688-10.112l24.384-6.528 6.528 24.384-24.384 6.528-3.84-14.272zM799.104 440.896l-6.784-25.152 24.384-6.592 6.72 25.28-24.32 6.464zM512 680.832c76.672 0 144.768-37.12 187.2-94.336l29.696-7.936c-44.352 73.408-124.864 122.56-216.896 122.56-44.48 0-86.208-11.456-122.56-31.616l29.632-7.936c28.48 12.416 59.904 19.264 92.928 19.264zM664.896 694.016l16.256-13.184 5.056 19.776 18.176 10.624-18.176 10.624-5.056 19.776-16.256-13.184-21.248 1.6 8.128-18.752-8.128-18.752 21.248 1.472zM382.912 738.176l-16.704 11.648-3.648-20.544-17.088-12.8 18.432-8.832 6.144-19.52 15.040 15.104 20.928 0.704-9.152 18.176 6.784 19.968-20.736-3.904zM539.456 766.656l-12.416 16.128-9.728-18.496-20.16-6.976 14.912-14.016-0.128-20.48 18.944 9.856 20.096-5.696-3.136 20.16 12.544 16.96-20.928 2.56zM766.016 639.552l-17.536 12.16-2.496-20.288-16.576-12.032 19.2-9.472 7.296-19.584 14.336 14.528 21.056-0.064-10.24 18.368 5.696 19.584-20.736-3.2zM993.984 486.528l-880.128 235.84c-21.632 5.76-43.84-7.040-49.6-28.608l-62.912-234.752c-5.76-21.568 7.040-43.84 28.672-49.536l880.064-235.84c21.632-5.76 43.84 6.976 49.6 28.608l62.848 234.688c5.824 21.632-6.976 43.84-28.544 49.6zM1000.448 432.384l-57.6-215.168c-4.352-16.128-20.992-25.728-37.248-21.504l-860.544 230.72c-16.192 4.288-25.856 20.992-21.504 37.184l57.664 215.104c4.352 16.192 20.992 25.792 37.184 21.44l860.544-230.592c16.192-4.288 25.792-20.992 21.504-37.184zM512 812.48c168.704 0 310.592-114.624 352.128-270.144l22.4-6.016c-39.872 169.92-192.448 296.384-374.528 296.384-110.4 0-209.92-46.528-280.064-121.024l22.4-6.016c65.92 65.984 156.992 106.816 257.664 106.816zM604.928 234.496c-28.48-12.48-59.904-19.392-92.928-19.392-76.736 0-144.768 37.12-187.2 94.4l-29.696 8c44.352-73.536 124.864-122.624 216.896-122.624 44.416 0 86.272 11.52 122.496 31.616l-29.568 8zM387.648 192.384l-16.064 13.12-4.992-19.648-18.048-10.624 18.048-10.624 4.992-19.648 16.064 13.12 21.12-1.6-8.064 18.752 8.064 18.752-21.12-1.6zM511.936 129.984l12.288-16.128 9.6 18.496 20.032 6.976-14.72 14.016 0.064 20.352-18.752-9.856-19.968 5.76 3.136-20.096-12.416-16.896 20.736-2.624zM256 257.28l16.512-13.248 3.904 20.032 17.216 10.88-18.24 10.752-5.952 19.904-15.232-13.376-20.8 1.536 8.896-19.008-7.040-19.136 20.736 1.664zM512 83.52c-168.704 0-310.592 114.624-352.128 270.272l-22.4 6.016c39.872-170.048 192.448-296.576 374.528-296.576 110.4 0 209.92 46.528 280.064 121.024l-22.4 6.016c-65.92-65.92-157.056-106.752-257.664-106.752zM658.368 157.888l16.64-11.648 3.584 20.48 16.96 12.736-18.304 8.768-6.144 19.52-14.912-14.976-20.8-0.768 9.152-18.112-6.656-19.904 20.48 3.904z" />
<glyph unicode="&#xe917;" glyph-name="e923_goal" d="M514.048 336.704v-336.96c0-3.968 1.536-8.064 4.736-11.136s7.424-4.608 11.584-4.608h120.064c4.16 0 8.384 1.536 11.584 4.608 3.264 3.072 4.8 115.328 4.8 119.36v304.832l-122.112-101.312-30.656 25.216zM0.896 0.384c0-4.096 1.536-8.384 4.736-11.584s7.36-4.8 11.584-4.8h120.064c4.16 0 8.384 1.6 11.584 4.8s4.736 7.296 4.736 11.584v338.176l-152.768-126.080 0.064-212.096zM257.408 424.256v-423.872c0-4.096 1.536-8.384 4.736-11.584s7.424-4.8 11.584-4.8h120.128c4.16 0 8.384 1.6 11.584 4.8s4.736 7.296 4.736 11.584v421.888l-76.288 64.896-76.48-62.912zM770.624-0.064c0-4.032 1.6-8.128 4.8-11.264s7.296-4.672 11.52-4.672h120.192c4.16 0 8.384 1.536 11.52 4.672 3.264 3.136 4.864 7.104 4.864 11.264v601.792l-152.896-128.192v-473.6zM1022.4 910.464c-1.088 1.024-2.368 1.536-3.904 1.536h-274.24c-2.112 0-4.096-1.28-4.992-3.392s-0.32-4.416 1.28-5.952l114.816-112.896-310.656-267.392-210.816 179.584-333.888-275.392v-118.912l333.888 275.392 210.816-179.52 375.168 322.88 94.72-93.312c1.536-1.472 3.968-1.984 6.016-1.152s3.392 2.88 3.392 4.992v269.632c0 1.408-0.576 2.752-1.6 3.904z" />
<glyph unicode="&#xe918;" glyph-name="e924_cusplat" d="M345.408 224c0 36.416 5.248 71.040 15.744 104.064 10.496 33.088 25.28 63.36 44.352 91.136 19.2 27.712 41.856 52.48 67.968 74.048 26.24 21.568 55.040 38.848 86.464 51.776 0 0 11.52 15.744 12.928 20.16 6.272 1.856 12.16 5.248 17.728 10.176 4.8 4.288 9.344 10.304 13.312 18.048 4.096 7.744 6.592 18.368 7.936 31.936 1.28 9.856 1.152 18.24-0.448 25.024s-3.648 12.288-6.080 16.64c-2.368 4.928-5.76 8.96-10.176 12.032 0 25.28-1.536 50.304-4.544 74.944-3.136 21.568-8.32 44.224-15.872 67.968-7.296 23.68-19.008 45.376-35.072 65.152-6.72 8.704-16.192 17.28-28.224 25.92-11.968 8.64-25.728 16.384-41.152 23.104-15.424 6.784-31.872 12.224-49.472 16.192-17.536 4.032-35.264 6.016-53.12 6.016-14.208 0-28.864-1.088-43.968-3.2-15.104-2.176-30.4-6.336-45.824-12.48-15.36-6.208-30.144-14.656-44.352-25.408-14.208-10.816-27.456-24.896-39.808-42.112-12.928-17.856-22.464-38.208-28.608-61.056-6.208-22.848-10.496-44.16-12.992-63.872-2.432-23.424-3.648-46.848-3.648-70.272-5.568-6.208-9.536-12.608-12.032-19.456-3.136-6.784-4.928-14.464-5.568-23.168-0.64-8.64 0.576-18.176 3.712-28.672s6.784-18.496 11.072-24.064 8.32-9.856 12.032-12.928c4.288-3.136 8.64-5.312 12.928-6.528 8.768-20.544 11.328-24.96 33.28-51.584 10.56-8.576 20.096-17.088 28.736-25.408s13.568-19.584 14.784-33.728c0.576-9.92 0.896-18.816 0.896-26.944 0-7.936-1.536-15.68-4.672-23.040-3.008-7.424-8.128-14.976-15.232-22.656-7.040-7.744-17.024-15.552-30.016-23.552-11.136-6.784-63.552-26.112-77.696-30.144s-48.832-22.464-59.968-29.632c-11.072-7.104-20.48-15.552-28.16-25.408-7.68-9.792-12.8-22.528-15.296-37.824-6.144-40.128-7.488-73.024-4.096-98.56 3.392-25.6 8.448-40.896 15.232-45.824 3.712-3.136 12.608-6.272 26.816-9.344 14.144-3.072 12.736-6.144 33.024-9.216 20.352-3.072 43.008-6.080 68.032-8.896 25.024-2.752 50.112-5.184 75.392-7.36 25.28-2.112 49.792-3.84 73.536-5.056s44.544-1.792 62.464-1.792h24.96c-14.784 25.856-26.368 53.504-34.688 82.752-8.384 29.44-12.544 60.096-12.544 92.096v0zM839.744 255.424c-13.824 0-26.112-6.016-34.752-15.36l-78.4 39.168c6.528 9.088 10.24 20.096 10.24 32.192 0 30.912-25.024 56.064-56.064 56.064-30.848 0-56-25.088-56-56.064 0-12.928 4.288-24.768 11.712-34.24l-60.672-80.896c-5.056 1.92-10.688 3.008-16.448 3.008-25.792 0-46.72-20.864-46.72-46.72 0-25.792 20.928-46.656 46.72-46.656s46.72 20.864 46.72 46.656c0 10.56-3.392 20.224-9.344 28.032l60.16 80.256c7.168-3.456 15.296-5.376 23.872-5.376 12.736 0 24.32 4.096 33.664 11.2l81.728-40.96c-2.048-5.184-3.328-11.008-3.328-17.024 0-25.856 20.928-46.72 46.784-46.72 25.792 0 46.72 20.864 46.72 46.72 0.192 25.728-20.8 46.72-46.592 46.72v0zM1005.888-14.656l-85.12 66.624c14.336 19.008 26.368 39.808 36.16 62.464 15.296 35.2 22.912 72.64 22.912 112.448s-7.616 77.376-22.912 112.576c-15.232 35.2-35.968 65.92-62.016 92.224-25.984 26.304-56.512 47.104-91.84 62.4-35.136 15.296-72.576 22.976-112.512 22.976-40.32 0-78.144-7.68-113.344-22.976s-65.792-36.096-91.776-62.4c-26.048-26.368-46.72-57.024-62.016-92.224-15.36-35.2-22.976-72.768-22.976-112.576s7.616-77.248 22.976-112.448c15.296-35.2 35.968-65.984 62.016-92.288 25.984-26.304 56.64-46.912 91.84-62.016 35.2-14.912 73.024-22.528 113.344-22.528 39.936 0 77.376 7.488 112.512 22.528 31.104 13.248 58.56 30.72 82.432 52.8l82.88-65.024c9.152-9.088 23.808-9.088 32.896 0l4.608 4.608c8.896 9.088 8.896 23.744-0.064 32.832v0zM690.24-6.272c-129.088 0-233.664 104.512-233.664 233.536s104.576 233.664 233.664 233.664c129.088 0 233.536-104.64 233.536-233.664s-104.448-233.536-233.536-233.536v0z" />
<glyph unicode="&#xe919;" glyph-name="e925_compete" d="M844.928 588.928l44.224 113.28c10.112 25.984-1.984 55.36-27.584 66.56l-111.424 48.768-48.704 111.36c-11.2 25.536-40.576 37.696-66.496 27.52l-113.28-44.224-113.28 44.224c-25.984 10.176-55.36-1.984-66.56-27.52l-48.768-111.424-111.424-48.768c-25.536-11.2-37.696-40.576-27.52-66.56l44.288-113.216-44.288-113.344c-10.112-25.92 1.984-55.296 27.52-66.496l111.424-48.832 48.768-111.36c8.512-19.456 27.584-31.104 47.616-31.104 6.336 0 12.672 1.152 18.88 3.584l113.28 44.224 113.28-44.224c25.92-10.112 55.296 2.048 66.496 27.584l48.768 111.36 111.424 48.832c25.536 11.2 37.696 40.576 27.584 66.496l-44.224 113.28zM521.664 360.256c-126.272 0-228.608 102.4-228.608 228.672 0 126.208 102.336 228.544 228.608 228.544 126.208 0 228.544-102.336 228.544-228.544 0-126.272-102.336-228.672-228.544-228.672zM521.664 785.792c-108.736 0-196.928-88.128-196.928-196.864s88.128-196.864 196.928-196.864c108.736 0 196.864 88.128 196.864 196.864 0 108.672-88.128 196.864-196.864 196.864zM606.848 596.48l-27.968-29.888 4.928-39.808c0.192-1.024 0.256-1.984 0.256-3.072 0-9.728-7.872-17.664-17.6-17.728h-0.128c-2.56 0-5.184 0.576-7.552 1.664l-37.12 17.344-37.12-17.344c-5.824-2.752-12.672-2.048-17.92 1.664-5.248 3.84-8 10.176-7.168 16.576l5.12 40.704-28.096 29.888c-4.416 4.736-5.888 11.456-3.904 17.6s7.168 10.688 13.504 11.968l40.192 7.744 19.84 35.904c3.2 5.632 9.088 9.088 15.552 9.088s12.416-3.52 15.552-9.152l19.776-35.904 40.256-7.744c6.4-1.216 11.584-5.76 13.568-11.968 1.92-6.016 0.448-12.8-3.968-17.536zM371.968 168.576c-22.72 0-44.288 13.184-53.952 35.264l-43.392 99.008-141.056-244.288c-3.52-6.144-3.072-13.888 1.28-19.52 4.352-5.696 11.648-8.128 18.56-6.336l114.24 30.656 30.656-114.24c1.28-4.608 4.224-8.448 8.192-10.752 1.984-1.152 4.16-1.856 6.528-2.176 7.104-0.96 14.016 2.496 17.6 8.704l151.552 262.528-88.832-34.752c-6.976-2.88-14.272-4.096-21.376-4.096zM760 283.136l-34.752-79.296c-12.608-28.928-45.888-42.688-75.328-31.168l-114.688 44.736 157.376-272.576c3.52-6.208 10.432-9.6 17.536-8.704 2.304 0.32 4.48 1.088 6.528 2.176 3.968 2.304 6.912 6.144 8.256 10.752l30.592 114.24 114.304-30.656c6.848-1.792 14.208 0.64 18.496 6.336 4.352 5.632 4.864 13.376 1.344 19.52l-129.664 224.64z" />
<glyph unicode="&#xe91a;" glyph-name="e926_datapotion" d="M1002.752 403.264l-211.136 0.32c-11.392-3.136-23.104 3.712-26.112 15.040l-31.808 101.248-99.776-468.096c0 0-2.048-24.64-15.36-24.64-13.376 0-35.904-0.384-35.904-0.384-11.008-3.008-22.272 3.648-25.28 14.656l-123.648 610.432-93.76-441.088c-3.072-11.072-16-20.224-27.2-17.344l-33.216-0.448c-11.584-3.072-23.552 3.712-26.688 15.168l-62.528 195.136h-168.96c-11.84 0-21.376 9.536-21.376 21.376v42.624c0 11.84 9.6 21.312 21.376 21.312l209.984 0.768c12.736 0.384 23.552-1.088 26.688-12.416l32.512-101.568 91.648 478.72c0 0 4.544 14.528 19.2 14.528s45.44 0.64 45.44 0.64c11.008 2.944 22.4-3.584 25.28-14.656l122.624-605.76 90.624 435.072c3.072 11.072 11.648 20.224 22.656 17.28l36.416 0.512c11.392 3.008 23.040-3.776 26.112-15.104l62.272-198.016h169.856c11.776 0.064 21.312-9.472 21.312-21.248v-42.688c0.064-11.84-9.536-21.376-21.248-21.376v0z" />
<glyph unicode="&#xe91b;" glyph-name="e927_datasec" d="M510.272 829.44c-159.168 0-288.192-126.4-288.192-282.304s129.024-282.24 288.192-282.24c159.168 0 288.128 126.336 288.128 282.24s-128.96 282.304-288.128 282.304v0zM177.472 438.72v260.672c-3.648 0-7.296-0.128-10.816-0.448 59.072 128.256 190.592 217.6 343.616 217.6 152.96 0 284.608-89.344 343.616-217.6-3.584 0.256-7.104 0.448-10.816 0.448v-260.672c73.472 0 133.12 58.368 133.12 130.304 0 48.896-27.52 91.456-68.096 113.792-57.28 161.344-213.44 277.184-397.824 277.184s-340.48-115.84-397.76-277.184c-40.64-22.272-68.16-64.896-68.16-113.728 0-72 59.584-130.368 133.12-130.368v0zM797.824 289.28c-75.328-68.8-176.384-110.976-287.552-110.976-110.976 0-211.904 41.984-287.168 110.656-134.656-67.904-223.104-188.8-223.104-352.96h1024c0 164.48-90.048 285.504-226.176 353.28v0z" />
<glyph unicode="&#xe91c;" glyph-name="e928_datamanage" d="M0 521.152h246.016v-585.152h-246.016v585.152zM388.992 960h246.016v-1024h-246.016v1024zM777.984 692.416h246.016v-756.416h-246.016v756.416z" />
<glyph unicode="&#xe91d;" glyph-name="e929_fav" d="M830.016-64l-318.016 175.232-318.016-175.232 60.736 370.752-254.72 260.16 352.192 53.632 159.808 339.456 159.808-339.456 352.192-53.632-254.656-260.16 60.672-370.752zM512 209.856l203.84-112.32-38.976 238.336 167.488 171.072-231.232 35.2-101.12 214.72-101.056-214.656-231.232-35.2 167.488-171.072-39.040-238.336 203.84 112.256z" />
<glyph unicode="&#xe91e;" glyph-name="e930_recev" d="M996.544-36.544c-7.296-16.192-23.488-27.456-42.368-27.456h-884.352c-18.88 0-35.072 11.264-42.368 27.456-16.128 7.296-27.456 23.424-27.456 42.304v884.416c0 18.88 11.328 35.072 27.456 42.304 7.296 16.192 23.488 27.52 42.368 27.52h884.352c18.88 0 35.072-11.328 42.368-27.52 16.192-7.232 27.456-23.424 27.456-42.304v-884.416c0-18.88-11.264-35.008-27.456-42.304zM930.944 866.88h-837.824v-558.592h139.648c25.664 0 46.528-20.8 46.528-46.528v-93.12h465.472v93.12c0 25.664 20.8 46.528 46.592 46.528h139.648v558.592zM525.184 364.992c-6.912-6.912-16-10.24-25.152-10.176-9.088-0.064-18.176 3.264-25.088 10.176l-162.24 162.24c-13.696 13.696-13.696 35.904 0 49.472 13.632 13.696 35.84 13.696 49.472 0l103.296-103.232v195.584c0 19.328 15.616 34.944 34.88 34.944s34.88-15.616 34.88-34.944v-194.816l102.464 102.528c13.76 13.696 35.904 13.696 49.6 0 13.632-13.632 13.632-35.904 0-49.536l-162.112-162.24z" />
<glyph unicode="&#xe91f;" glyph-name="e931_alsend" d="M932.096 960h-844.032c-48.832 0-88.768-36.288-88.768-85.184v-685.184c0-45.76 35.008-83.776 79.552-88.448h346.816v-80.32h-82.688c-23.424 0-42.496-19.008-42.496-42.432s19.072-42.432 42.496-42.432h341.184c23.424 0 42.496 19.072 42.496 42.496s-19.072 42.432-42.496 42.432h-88.064v80.32h352.576c44.096 4.672 75.968 42.688 75.968 88.448v685.12c0 48.896-43.712 85.184-92.544 85.184zM939.2 251.648c0-30.912-21.44-56.64-51.328-59.776h-749.056c-30.144 3.136-53.76 28.8-53.76 59.776v564.992c0 33.024 27.008 57.536 60.032 57.536h731.648c33.024 0 62.528-24.512 62.528-57.536v-564.992h-0.064zM756.608 741.312c-18.048-0.384-33.408-6.848-45.952-19.392l-294.592-294.592-101.312 100.288c-12.544 12.544-27.84 19.008-45.952 19.328s-33.408-5.76-45.952-18.304-19.008-27.328-19.328-44.352 5.76-31.872 18.304-44.352l145.216-146.304c12.544-12.48 28.928-18.624 49.088-18.24 20.16 0.32 36.48 6.72 49.024 19.264l335.36 335.36c12.544 12.544 19.2 28.032 19.904 46.528s-5.248 33.92-17.728 46.528c-12.608 12.48-27.968 18.56-46.080 18.24z" />
<glyph unicode="&#xe920;" glyph-name="e932_aldelete" d="M708.864 813.696v73.152c0 40.384-35.264 73.152-78.72 73.152h-236.288c-43.52 0-78.784-32.768-78.784-73.152v-73.152h-315.072v-73.152h118.144v-731.456c0-40.384 35.328-73.152 78.72-73.152h630.144c43.584 0 78.784 32.768 78.784 73.152v731.456h118.208v73.152h-315.136zM393.856 886.848h236.288v-73.152h-236.288v73.152zM827.072 9.152h-630.144v731.392h630.144v-731.392zM315.072 630.848h78.784v-512h-78.784v512zM472.576 630.848h78.72v-512h-78.72v512zM630.144 630.848h78.72v-512h-78.72v512z" />
<glyph unicode="&#xe921;" glyph-name="e933_alreview" d="M79.104 939.84h628.736c82.176 0 192.704 14.272 227.776-33.984 25.152-34.56 20.352-95.744 20.352-156.352v-336.448c-6.72-5.696-13.568-11.392-20.352-17.024-64.256 0.064-47.552 55.488-47.552 115.52v326.336c-3.648 4.864-5.312 13.312-6.784 20.416-46.272 26.304-152.128 13.568-220.864 13.568h-367.232c-67.904 0-150.272 5.312-207.296-6.784-26.24-46.272-13.568-152.192-13.568-220.928v-367.040c0-67.968-5.312-150.336 6.784-207.36 28.544-15.872 75.776-13.568 122.368-13.568h241.344c39.424 0 111.744 10.048 129.216-13.632 13.504-17.536 4.032-48.064-13.632-54.4h-479.296c-95.68 26.944-74.752 136.448-74.752 254.912v441.856c0 48-11.776 153.152 3.392 190.336 15.168 37.312 42.304 41.728 71.36 64.576v0zM293.184 701.952h407.872c11.904-15.872 17.536-19.776 16.96-50.944-34.496-24.896-75.328-17.024-132.48-17.024h-292.352c-11.84 15.808-17.536 19.712-17.024 50.944 6.272 4.416 12.672 10.88 17.024 17.024v0zM293.184 497.984h407.872c11.904-15.808 17.536-19.776 16.96-50.944-34.496-24.96-75.328-17.024-132.48-17.024h-292.352c-11.84 15.872-17.536 19.776-17.024 51.072 6.272 4.288 12.672 10.752 17.024 16.896v0zM972.928 328.128h33.984c11.904-15.872 17.6-19.84 17.024-51.008-26.496-21.184-44.288-57.344-64.576-84.992-40.96-55.744-91.584-107.456-132.544-163.136-24.128-32.832-33.472-75.136-91.84-74.816-37.056 47.36-152.96 115.968-152.896 186.944 15.808 11.968 19.776 17.6 51.008 17.024 12.544-16.576 102.976-106.432 118.848-112.128 12.032 20.544 30.656 35.968 44.16 54.4 43.2 58.688 86.144 114.56 129.216 173.312 13.888 18.816 34.496 34.752 47.616 54.4v0zM293.184 294.144h407.872c11.904-15.872 17.536-19.84 16.96-51.008-34.496-24.896-75.328-17.024-132.48-17.024h-292.352c-11.904 15.872-17.536 19.776-17.024 51.008 6.272 4.288 12.672 10.752 17.024 17.024v0z" />
<glyph unicode="&#xe922;" glyph-name="e934_platmanage" d="M567.936 512.576c0 0 3.584 447.424 0 447.424 257.408 0 447.424-190.016 447.424-447.424 0-1.472-447.424 0-447.424 0zM978.112 420.736c0-267.712-217.024-484.736-484.736-484.736s-484.736 217.088-484.736 484.736 217.088 484.736 484.736 484.736c12.544 0 24.96-0.896 37.248-1.856v-428.352h444.608c1.856-17.152 2.88-36.864 2.88-54.528zM938.496 435.648h-445.12v432.512c-247.104 0-447.424-200.32-447.424-447.424s200.32-447.424 447.424-447.424 447.424 200.32 447.424 447.424c0 48.128-2.304 14.912-2.304 14.912z" />
<glyph unicode="&#xe923;" glyph-name="e935_autoplat" d="M1015.168-9.216l-172.672 172.544c73.728 84.48 118.4 195.072 118.4 315.904 0 265.536-215.232 480.768-480.768 480.768-265.472 0-480.704-215.232-480.704-480.704 0-265.536 215.168-480.768 480.704-480.768 121.472 0 232.576 45.12 317.12 119.424l172.672-172.48c6.272-6.272 14.4-9.472 22.656-9.472s16.448 3.072 22.656 9.408c12.48 12.48 12.48 32.832-0.064 45.376zM480.128 62.656c-56.256 0-110.784 11.072-162.112 32.832-49.536 20.864-94.144 51.072-132.416 89.344-38.464 38.272-68.352 82.88-89.344 132.48-21.632 51.264-32.64 105.728-32.64 162.048s11.008 110.848 32.768 162.112c20.8 49.472 51.008 94.080 89.216 132.416 38.272 38.4 82.816 68.288 132.48 89.344 51.264 21.76 105.856 32.768 162.176 32.768 56.256 0 110.848-11.008 162.176-32.704 49.536-20.992 94.208-51.136 132.48-89.344 38.4-38.272 68.288-82.816 89.344-132.48 21.44-51.264 32.512-105.856 32.512-162.112s-11.072-110.848-32.768-162.176c-20.864-49.472-51.072-94.144-89.344-132.48-38.208-38.336-82.752-68.288-132.48-89.344-51.136-21.696-105.728-32.704-162.048-32.704zM687.488 709.568c-38.144 0-69.12-30.912-69.12-69.056 0-13.248 3.712-25.536 10.112-36.032l-75.2-125.248c-1.344 0.064-2.688 0.064-4.032 0.064-7.168 0-14.144-1.088-20.544-3.072l-51.648 51.584c1.984 6.528 3.072 13.376 3.072 20.608 0 38.144-30.912 69.12-69.056 69.12-38.208 0-69.12-30.912-69.12-69.12 0-13.184 3.776-25.536 10.048-36.032l-75.136-125.312c-1.28 0.064-2.752 0.064-3.968 0.064-38.208 0-69.12-30.912-69.12-69.056 0-38.208 30.912-69.056 69.12-69.056 38.144 0 69.056 30.848 69.056 69.056 0 13.248-3.712 25.536-10.112 36.032l75.2 125.312c1.28 0 2.688 0 4.032 0 7.168 0 14.144 1.088 20.608 3.136l51.584-51.584c-1.984-6.592-3.136-13.504-3.136-20.672 0-38.144 30.912-69.12 69.12-69.12s69.12 30.912 69.12 69.12c0 13.248-3.712 25.536-10.112 36.032l75.264 125.312c1.28-0.128 2.752-0.128 3.968-0.128 38.144 0 69.056 30.976 69.056 69.12 0 38.080-30.912 68.928-69.056 68.928zM272.896 313.152c-2.816 0-5.056 2.112-5.056 4.928 0 2.752 2.24 4.992 5.056 4.992 2.752 0 4.992-2.24 4.992-4.992 0-2.816-2.24-4.928-4.992-4.928zM411.072 543.424c-2.816 0-4.992 2.176-4.992 4.992s2.176 4.992 4.992 4.992 4.928-2.176 4.928-5.056c0-2.752-2.112-4.928-4.928-4.928zM549.248 405.184c-2.752 0-4.992 2.176-4.992 4.928 0 2.816 2.24 5.12 4.992 5.12s4.992-2.24 4.992-5.12c0-2.752-2.24-4.928-4.992-4.928zM687.488 635.52c-2.816 0-4.992 2.176-4.992 5.056 0 2.752 2.176 4.992 4.992 4.992s5.056-2.176 5.056-4.992c0-2.88-2.24-5.056-5.056-5.056z" />
<glyph unicode="&#xe924;" glyph-name="e936_tool1" d="M512.051 960c-282.829 0-512.051-229.222-512.051-512.152 0-282.829 229.222-511.949 512.051-511.949s512.051 229.121 512.051 511.949c-0.101 282.93-229.222 512.152-512.051 512.152v0zM548.532 10.583v71.645h-73.165v-71.645c-213.211 17.632-383.253 187.674-400.784 400.784h71.645v73.165h-71.645c17.531 213.312 187.573 383.253 400.784 400.885v-71.746h73.165v71.746c213.211-17.632 383.253-187.573 400.885-400.885h-71.645v-73.165h71.645c-17.632-213.211-187.674-383.253-400.885-400.784v0zM228.006 166.945l392.677 172.17 171.663 392.069-388.725-175.109-175.615-389.13zM564.847 394.647l-191.829-84.21 85.832 190.309 105.997-106.099z" />
<glyph unicode="&#xe925;" glyph-name="e937_tool2" horiz-adv-x="1167" d="M300.113 546.574c0-13.38 5.645-26.76 15.053-36.064 9.408-9.408 22.579-14.844 35.855-14.844 13.38 0 26.656 5.436 35.959 14.844 9.512 9.303 14.948 22.684 14.948 36.064 0 13.276-5.436 26.342-14.948 35.855-9.303 9.408-22.579 15.053-35.959 15.053-13.276 0-26.447-5.645-35.855-15.053-9.408-9.512-15.053-22.579-15.053-35.855v0zM532.488 546.574c0-13.38 5.436-26.76 14.948-36.064 9.512-9.408 22.579-14.844 35.959-14.844s26.551 5.436 35.959 14.844c9.408 9.303 14.948 22.684 14.948 36.064 0 13.276-5.54 26.342-14.948 35.855-9.408 9.408-22.579 15.053-35.959 15.053s-26.447-5.645-35.959-15.053c-9.512-9.512-14.948-22.579-14.948-35.855v0zM764.864 546.574c0-13.38 5.436-26.76 14.948-36.064 9.408-9.408 22.579-14.844 35.959-14.844 13.276 0 26.447 5.436 35.959 14.844 9.408 9.303 14.948 22.684 14.948 36.064 0 13.276-5.54 26.342-14.948 35.855-9.512 9.408-22.684 15.053-35.959 15.053-13.38 0-26.551-5.645-35.959-15.053-9.617-9.512-14.948-22.579-14.948-35.855v0zM995.776 132.939h-412.381c-14.007 0-25.297 11.29-25.297 25.297 0 14.112 11.29 25.506 25.297 25.506h412.381c66.169 0 120.003 54.043 120.003 120.003v485.24c0 66.274-53.939 120.108-120.003 120.108h-824.761c-66.274 0-120.108-53.939-120.108-120.108v-485.24c0-66.065 53.939-120.003 120.108-120.003h52.58c14.112 0 25.401-11.394 25.401-25.506 0-14.007-11.29-25.297-25.401-25.297h-52.58c-94.288 0-171.015 76.727-171.015 170.911v485.24c0 94.288 76.622 171.015 171.015 171.015h824.761c94.184 0 170.911-76.622 170.911-171.015v-485.24c-0.105-94.184-76.727-170.911-170.911-170.911v0zM267.29-64c-38.050 0-69.096 31.255-69.096 69.41v152.826c0 14.112 11.394 25.506 25.401 25.506s25.401-11.394 25.401-25.506v-152.826c0-13.903 15.157-24.147 28.955-15.053l291.541 189.413c11.603 7.526 27.492 4.077 35.123-7.526 7.526-11.812 4.286-27.701-7.422-35.227l-291.227-188.89c-11.499-7.944-24.983-12.126-38.677-12.126v0z" />
<glyph unicode="&#xe926;" glyph-name="e938_tool3" horiz-adv-x="899" d="M374.705 585.406h-175.032v-49.946h175.032v49.946zM374.705 710.271h-175.032v-49.946h175.032v49.946zM199.672 410.707h499.458v49.835h-499.458v-49.835zM599.239 960h-499.347c-53.387 0-100.003-53.941-100.003-107.106v-809.677c0-53.387 46.616-107.217 100.003-107.217h699.13c53.165 0 99.892 28.969 99.892 82.022v642.192l-299.675 299.786zM599.239 884.97l228.419-224.645h-178.251c-35.517 0-50.057 14.54-50.057 49.946v174.699h-0.111zM848.968 36.003c0-35.295-14.429-49.835-49.835-49.835h-699.241c-35.628 0-50.057 14.54-50.057 49.835v799.022c0 35.517 14.429 75.030 50.057 75.030h449.401v-224.756c0-53.165 21.643-74.919 74.919-74.919h224.645v-574.377h0.111zM199.672 285.732h499.458v49.835h-499.458v-49.835zM199.672 160.867h499.458v49.946h-499.458v-49.946z" />
<glyph unicode="&#xe927;" glyph-name="e939_tool4" horiz-adv-x="864" d="M395.184 57.084h83.147l11.908 91.683h-108.228zM431.962 752.502c-70.185 0-133.625-26.029-179.677-68.077-46.157-42.258-74.716-100.535-74.716-164.818 0-104.855 77.772-184.946 145.849-255.131 13.489-13.805 26.662-27.399 38.359-40.151v-30.35h145.638v28.137c3.478 3.688 7.904 8.22 12.857 13.805 44.155 50.267 125.194 142.266 144.585 187.054 6.639 14.964 11.908 30.561 15.386 46.474 3.899 16.229 5.796 32.985 5.796 50.162 0 64.283-28.559 122.56-74.611 164.818-45.841 42.048-109.281 68.077-179.466 68.077zM347.656 285.026c-19.074 19.601-38.675 39.94-57.117 61.333-71.765 120.663-76.718 232.684 5.691 333.114 19.917 14.227 42.68 25.397 67.445 32.879-97.268-138.051-22.025-324.367 19.812-464.841-11.487 12.119-23.5 24.659-35.83 37.516zM475.696 236.55h-43.839c-2.002 161.867-20.444 324.367-2.951 485.286 1.054 0 2.213 0 3.161 0 27.189 0 53.323-4.321 77.456-12.54 44.577-146.271 8.009-303.923-33.828-472.745zM648.734 475.663c-3.372-14.016-8.114-27.926-13.91-41.415-10.222-23.289-40.361-62.597-72.292-100.956 51.005 102.221 73.135 228.469 30.561 325.21 37.411-36.252 60.384-85.254 60.384-138.999 0.105-14.964-1.686-29.718-4.742-43.839zM864.030 671.99c0 158.706-129.304 287.904-288.010 287.904h-287.904c-158.811 0-288.010-129.304-288.010-287.904v-735.99h864.030v261.348l-0.527 10.433c0.316 5.269 0.527 10.96 0.527 16.229v447.98zM800.063 224.010c0-7.798-0.527-15.491-1.265-23.289l-2.424-35.408h3.688v-165.345h-736.096v165.345h5.058l-3.794 35.408c-0.948 7.693-1.265 15.386-1.265 23.289v447.98c0 123.508 100.429 223.937 224.043 223.937h287.904c123.403 0 224.043-100.429 224.043-223.937v-447.98z" />
<glyph unicode="&#xe928;" glyph-name="e940_tool5" horiz-adv-x="914" d="M803.11-64h-691.923c-61.365 0-111.302 49.937-111.302 111.416v801.396c0 61.365 49.937 111.302 111.302 111.302h691.923c61.25 0 111.188-49.937 111.188-111.302v-801.396c0-61.479-49.937-111.416-111.188-111.416v0zM111.188 897.378c-26.74 0-48.68-21.712-48.68-48.68v-801.396c0-26.854 21.826-48.795 48.68-48.795h691.923c26.626 0 48.566 21.826 48.566 48.795v801.396c0 26.854-21.826 48.68-48.566 48.68h-691.923zM233.688 650.549h-60.679v62.736h60.679v-62.736zM233.688 479.254h-60.679v-62.622h60.679v62.622zM233.688 245.451h-60.679v-62.622h60.679v62.622zM741.289 650.549h-458.806v62.736h458.806v-62.736zM741.289 479.254h-458.806v-62.622h458.806v62.622zM741.289 245.451h-458.806v-62.622h458.806v62.622z" />
<glyph unicode="&#xe929;" glyph-name="e941_tool6" horiz-adv-x="991" d="M442.032 220.444c-17.864 0-33.070 6.486-44.448 18.609-7.443 7.975-16.375 22.224-16.375 44.979 0 43.703 27.86 142.807 52.423 224.472-11.484-4.998-24.032-10.527-35.728-15.525l-130.472-57.846 95.914 105.59c29.136 32.219 55.613 54.762 80.814 68.905 26.903 15.206 50.296 22.437 71.244 22.437h1.489c0.851 0 1.701 0 2.446 0 9.57-0.319 27.115-0.851 40.513-15.206 8.613-9.251 12.547-21.48 12.228-36.366-0.213-6.593-1.063-18.396-27.541-106.972-20.948-70.606-31.369-111.119-36.473-134.407 13.398 5.955 28.817 13.079 42.534 19.566l172.793 81.665-139.298-130.685c-38.812-36.685-66.884-59.76-86.131-70.606-21.373-12.654-39.769-18.609-55.932-18.609v0 0zM543.156 661.413c-18.715 0-35.197 6.912-47.85 20.204-12.228 12.866-18.715 29.88-18.715 49.339 0 23.075 7.869 43.81 23.181 60.185 15.631 17.013 35.622 26.052 57.952 26.052 18.928 0 35.409-6.699 48.063-19.672 12.441-12.76 18.928-29.348 18.928-48.382 0-23.075-7.975-43.278-23.713-60.504-20.523-22.543-42.746-27.222-57.846-27.222v0 0z" />
<glyph unicode="&#xe92a;" glyph-name="e942_tool7" horiz-adv-x="1821" d="M473.493 952.397l315.662-796.898h-150.087l-77.015 204.012h-338.752l-77.015-204.012h-146.286l311.86 796.898h161.632zM392.676 836.805c0-5.209-3.801-16.755-11.545-34.636-5.209-18.022-9.011-29.567-11.545-34.636-2.675-5.209-39.845-105.314-111.65-300.315h273.283c-74.48 195.001-113.058 295.106-115.452 300.315-2.675 10.137-9.011 28.159-19.289 53.924-2.534 7.744-3.801 12.812-3.801 15.347zM858.566 829.202v130.939h134.741v-130.939h-134.741zM862.368 159.3v569.796h130.939v-569.796h-130.939zM1763.172 159.3h-615.977v793.097h596.688v-115.452h-458.146v-219.499h431.254v-111.65h-431.254v-242.589h477.435v-103.907zM0-64v46.181h1821.039v-46.181h-1821.039z" />
<glyph unicode="&#xe92b;" glyph-name="e943_tool8" d="M901.999 960h-780.117c-67.237 0-121.882-54.764-121.882-121.882v-780.117c0-67.118 54.645-121.882 121.882-121.882h780.117c67.237 0 121.882 54.764 121.882 121.882v780.117c0 67.118-54.526 121.882-121.882 121.882zM975.176 57.882c0-40.39-32.787-73.177-73.177-73.177h-780.117c-40.271 0-73.177 32.787-73.177 73.177v780.117c0 40.39 32.906 73.058 73.177 73.058h780.117c40.39 0 73.177-32.668 73.177-73.058v-780.117zM905.563 513.099l-697.555 260.395c-0.238 0.119-0.594 0.238-0.832 0.238-0.119 0.119-0.238 0.119-0.475 0.238-0.475 0.238-0.95 0.356-1.544 0.475-0.119 0-0.238 0-0.475 0-0.356 0-0.832 0.119-1.188 0.119-0.119 0-0.356 0-0.356 0-1.188 0.238-2.257 0.238-3.326 0-0.119 0-0.356 0-0.475 0-0.475 0-0.832-0.119-1.307-0.119-0.119 0-0.238 0-0.356 0-0.475-0.119-0.95-0.238-1.544-0.475-0.119-0.119-0.119-0.119-0.238-0.119-0.356-0.119-0.832-0.238-1.426-0.475-0.119 0-0.238-0.119-0.238-0.238-0.475-0.119-1.069-0.356-1.426-0.594-0.119 0-0.119 0-0.119 0-0.594-0.356-1.069-0.713-1.544-0.95v0c-1.069-0.713-2.019-1.544-2.851-2.376-0.475-0.475-0.95-1.069-1.307-1.663 0 0 0 0 0 0-0.832-0.95-1.544-1.901-2.019-2.97 0-0.119 0-0.119-0.119-0.356-0.119-0.356-0.356-0.832-0.594-1.188 0-0.119-0.119-0.356-0.119-0.475-0.119-0.475-0.356-1.069-0.475-1.544 0 0 0 0 0-0.119-0.119-0.475-0.238-0.95-0.356-1.544 0-0.119 0-0.238 0-0.475-0.119-0.356-0.119-0.832-0.238-1.307 0-0.119 0-0.238 0-0.238 0-0.594 0-1.188 0-1.782 0-0.119 0-0.119 0-0.119 0-0.475 0-1.069 0-1.663 0-0.119 0-0.238 0-0.238 0-0.594 0.119-1.069 0.238-1.663 0 0 0-0.119 0-0.119 0.119-0.594 0.238-1.188 0.356-1.663 0-0.119 0.119-0.238 0.119-0.356 0-0.356 0.119-0.594 0.238-0.832l254.218-703.852c2.613-7.128 9.385-11.998 16.987-12.355 0.356 0 0.594 0 0.832 0 7.365 0 14.018 4.158 17.225 10.929l140.889 299.36 293.182 134.949c7.009 3.089 11.285 10.216 11.048 17.819-0.713 8.078-5.702 14.73-12.83 17.344zM457.949 101.479l-209.908 580.9 328.583-328.583-118.675-252.317z" />
<glyph unicode="&#xe92c;" glyph-name="e944_tool9" d="M846.785 348.735c-22.256 84.323-75.755 137.718-119.223 163.422 0 0-40.751 33.228-115.043 48.692-44.095 9.195-128.627 15.36-128.627 15.36v168.020l-351.399-249.208 351.399-248.686v164.362c0 0 127.582 6.374 203.755-28.735 76.382-35.318 125.597-113.894 137.195-130.194 11.598-16.196 40.438-62.798 40.438-62.798s3.866 75.442-18.495 159.765zM512 960c-282.331 0-512-229.773-512-511.896 0-282.331 229.669-512 512-512s512 229.669 512 512c0 282.122-229.669 511.896-512 511.896zM512 0.052c-247.014 0-448.052 200.934-448.052 447.948 0 246.909 201.038 447.948 448.052 447.948s448.052-201.038 448.052-447.948c0-247.014-201.038-447.948-448.052-447.948z" />
<glyph unicode="&#xe92d;" glyph-name="e945_logoout" d="M64.32 666.816c76.928 85.312 229.376 213.632 298.56 253.44 87.36 50.304 219.136 44.224 270.848 18.624 138.24-68.416 314.752-263.936 384.896-395.136v-50.496c-64.768 93.248-241.024 312.448-379.84 377.216-58.112 27.008-163.52 19.904-220.8-19.904-55.744-38.848-260.608-230.144-271.552-239.68s-22.656-10.816-30.976-2.432c-11.968 11.968-35.264 40.32-51.136 58.368zM191.552 527.36c76.928 85.248 181.76 171.072 239.808 225.92 80.32 75.84 173.632 66.048 224.384 38.656 132.864-71.552 276.608-243.904 368.256-366.72v-52.736c-76.864 109.504-275.008 310.080-327.872 337.408-56.96 29.44-94.528 30.976-139.392-7.68-51.456-44.352-248.448-227.2-259.456-236.8-10.88-9.6-22.080-10.304-30.912-2.56-13.76 12.032-58.944 46.4-74.816 64.512zM959.232 227.52c-76.864-85.376-229.376-213.696-298.496-253.504-87.36-50.24-219.008-44.224-270.72-18.688-138.24 68.352-314.624 263.936-384.64 395.136v50.56c64.64-93.248 240.832-312.448 379.648-377.344 58.048-26.944 163.392-19.84 220.736 20.096 55.744 38.656 260.608 230.016 271.488 239.552 10.88 9.6 22.656 10.752 30.976 2.368 12.032-11.904 35.264-40.128 51.008-58.176zM832.128 366.848c-76.992-85.376-181.888-171.072-239.936-225.856-80.32-75.776-173.44-66.112-224.192-38.656-132.736 71.488-276.416 243.84-368 366.72v52.608c75.456-109.44 274.816-310.080 327.808-337.344 56.896-29.312 94.272-30.912 139.136 7.744 51.456 44.416 248.448 227.2 259.328 236.8 11.008 9.536 26.368 12.288 35.008 4.224 12.352-11.84 54.848-49.984 70.848-66.24z" />
<glyph unicode="&#xe92e;" glyph-name="e946_logoin" d="M26.944 617.088c53.248-68.032 170.56-186.432 218.944-223.552 50.176-38.656 78.208-18.368 113.856 14.528 35.648 32.768 193.216 171.52 218.496 195.904 43.008 41.408 97.6 51.072 152.768 8.768 95.872-73.344 251.904-235.776 279.36-288.448l-13.376-38.592c-34.88 45.312-170.112 185.152-238.4 238.4-30.272 23.744-65.28 6.016-91.648-22.464-46.272-49.792-198.784-182.144-222.336-201.088-57.536-46.080-101.888-52.544-169.792 0.256-108.352 84.608-231.872 231.168-261.632 277.76l13.76 38.528z" />
<glyph unicode="&#xe92f;" glyph-name="e947_help" d="M512 960c-282.304 0-512-229.632-512-512 0-282.304 229.696-512 512-512s512 229.696 512 512c0 282.368-229.696 512-512 512zM512 2.944c-245.824 0-445.056 199.232-445.056 445.056s199.232 445.056 445.056 445.056 445.056-199.232 445.056-445.056-199.232-445.056-445.056-445.056zM508.928 97.408c-43.584 0-79.104 34.816-79.104 77.376 0 42.88 35.328 77.376 79.104 77.376 43.52 0 78.912-34.752 78.912-77.376 0.064-42.56-35.264-77.376-78.912-77.376v0zM721.088 535.552c-15.424-24.32-48.384-57.472-98.944-99.456-26.112-21.504-42.368-39.168-48.64-52.416-6.4-13.056-9.28-36.8-8.64-70.912h-112.448c-0.32 16.192-0.576 26.048-0.576 29.504 0 36.48 6.080 66.24 18.112 89.92 12.032 23.552 36.224 50.048 72.256 79.36 36.032 29.376 57.6 48.64 64.704 57.728 10.944 14.336 16.512 30.144 16.512 47.424 0 23.872-9.792 44.544-28.992 61.76-19.264 17.152-45.312 25.728-77.952 25.728-31.488 0-57.664-8.96-78.976-26.752-21.184-17.92-39.36-57.28-43.712-81.664-4.096-23.040-115.008-32.768-113.6 13.888 1.344 46.656 25.6 97.216 67.2 133.888s96.192 54.976 163.776 54.976c71.168 0 127.616-18.624 169.664-55.744 42.24-37.12 62.976-80.384 62.976-129.664 0.384-27.392-7.296-53.184-22.72-77.568v0z" />
<glyph unicode="&#xe930;" glyph-name="e948_search" d="M379.136 866.496c162.56 0 294.912-132.288 294.912-294.848 0-162.624-132.352-294.912-294.912-294.912-162.624 0-294.912 132.288-294.912 294.912 0 162.56 132.352 294.848 294.912 294.848zM379.136 950.72c-209.408 0-379.136-169.728-379.136-379.136s169.728-379.2 379.136-379.2 379.136 169.728 379.136 379.2c0.064 209.408-169.728 379.136-379.136 379.136v0zM1004.864 130.56c25.472-25.472 25.472-67.264 0-92.736l-73.472-73.408c-25.472-25.472-67.328-25.472-92.672 0l-185.6 212.608c-25.472 25.472-25.472 67.264 0 92.672l46.4 46.592c25.536 25.344 67.264 25.344 92.736 0l212.608-185.728z" />
<glyph unicode="&#xe931;" glyph-name="e949_arrowLeft" horiz-adv-x="751" d="M495.945 823.467l-378.611-375.467 378.611-375.467h137.655l-375.467 375.467 375.467 375.467h-137.655z" />
<glyph unicode="&#xe932;" glyph-name="e950_arrowRight" horiz-adv-x="751" d="M117.333 823.467l375.467-375.467-375.467-375.467h137.655l378.611 375.467-378.611 375.467h-137.655z" />
</font>
</defs>
</svg>
